<svg width="512" height="512" viewBox="0 0 512 512" fill="none" xmlns="http://www.w3.org/2000/svg"><path fill-rule="evenodd" clip-rule="evenodd" d="M406.362 338.134C419.525 313.861 427 286.053 427 256.5C427 161.783 350.217 85 255.5 85C160.783 85 84 161.783 84 256.5C84 351.217 160.783 428 255.5 428C268.033 428 280.253 426.656 292.022 424.103C286.764 424.696 281.417 425 276 425C198.128 425 135 362.096 135 284.5C135 206.904 198.128 144 276 144C353.872 144 417 206.904 417 284.5C417 303.494 413.217 321.608 406.362 338.134Z" fill="url(#paint0_radial_1_2)"/><circle cx="319.5" cy="319.5" r="63.5" fill="#FF5A13"/><circle cx="288" cy="288" r="32" fill="white"/><defs><radialGradient id="paint0_radial_1_2" cx="0" cy="0" r="1" gradientUnits="userSpaceOnUse" gradientTransform="translate(359 339) rotate(-133.178) scale(311.284)"><stop stop-color="#FF2E92"/><stop offset="1" stop-color="#AD11C7"/></radialGradient></defs></svg>
